<?xml version="1.0" standalone="no"?>
<!DOCTYPE svg PUBLIC "-//W3C//DTD SVG 20010904//EN"
 "http://www.w3.org/TR/2001/REC-SVG-20010904/DTD/svg10.dtd">
<svg version="1.0" xmlns="http://www.w3.org/2000/svg"
 width="500.000000pt" height="500.000000pt" viewBox="0 0 500.000000 500.000000"
 preserveAspectRatio="xMidYMid meet">

<g transform="translate(0.000000,500.000000) scale(0.100000,-0.100000)"
fill="#e30206" stroke="none">
<path d="M2269 4185 c-324 -65 -554 -217 -736 -488 -124 -184 -178 -346 -171
-507 4 -81 12 -114 53 -230 113 -321 126 -397 84 -502 -40 -100 -22 -197 47
-257 55 -48 76 -54 239 -61 171 -7 184 -12 216 -80 20 -42 21 -55 15 -190 l-7
-145 37 -12 c21 -6 43 -9 49 -7 7 3 16 35 21 72 8 62 11 67 34 67 25 0 25 -1
25 -80 l0 -80 50 0 50 0 5 70 c5 67 6 70 30 70 24 0 25 -2 25 -75 l0 -75 50 0
50 0 3 67 c2 57 6 68 23 73 31 10 38 -3 41 -75 l3 -65 53 -3 52 -3 0 76 0 76
28 -3 c26 -3 27 -6 30 -63 3 -60 19 -88 45 -80 7 2 25 6 40 10 28 6 28 6 26
77 -2 56 1 74 13 82 27 16 45 -9 50 -69 3 -30 7 -58 10 -61 11 -11 79 8 87 25
4 9 3 64 -2 122 -11 123 2 205 38 247 23 27 26 27 172 32 168 7 213 20 273 84
64 68 75 140 35 238 -42 103 -31 192 51 403 67 174 78 223 78 350 0 135 -11
185 -75 322 -126 275 -360 495 -635 599 -158 59 -438 82 -605 49z m-209 -1266
c104 -13 188 -49 235 -100 33 -37 35 -43 35 -113 0 -66 -3 -77 -30 -115 -52
-71 -152 -121 -302 -151 -128 -25 -272 30 -320 123 -45 87 -23 198 53 275 55
56 107 76 234 91 6 0 49 -4 95 -10z m1096 -32 c72 -37 143 -147 144 -221 0
-99 -50 -166 -156 -206 -183 -69 -482 38 -523 187 -43 155 64 256 289 272 103
7 195 -5 246 -32z m-704 -328 c16 -63 20 -65 34 -16 15 48 39 62 62 35 34 -41
106 -342 97 -405 -8 -56 -44 -93 -90 -93 -30 0 -39 5 -56 35 -12 19 -24 35
-27 35 -4 0 -14 -15 -23 -33 -14 -29 -20 -32 -59 -32 -62 0 -85 33 -85 123 1
72 43 258 76 332 31 70 57 77 71 19z"/>
<path d="M1674 2065 c-3 -8 4 -40 16 -72 25 -67 28 -109 16 -293 -10 -160 -8
-166 80 -251 70 -66 88 -76 155 -89 43 -8 66 -22 136 -82 46 -40 109 -92 139
-115 l54 -43 203 0 203 0 61 48 c33 26 94 75 136 110 79 65 129 92 170 92 36
0 154 93 192 152 20 32 23 145 5 265 -11 79 -3 138 28 219 11 27 17 55 15 62
-5 14 -249 18 -270 4 -24 -15 -38 -82 -34 -169 2 -39 28 -25 61 32 55 96 68
88 50 -29 -11 -73 -20 -96 -65 -168 l-52 -83 -49 -3 c-27 -2 -53 -8 -59 -13
-5 -6 -10 -33 -10 -61 0 -54 -17 -77 -49 -65 -11 5 -16 19 -16 50 0 53 -16 69
-59 61 -42 -9 -52 -31 -45 -103 7 -59 6 -60 -20 -67 -15 -3 -31 -3 -36 2 -5 5
-10 41 -12 79 l-3 70 -39 3 c-21 2 -44 -2 -50 -8 -6 -6 -11 -43 -11 -82 0 -79
-12 -96 -60 -84 l-28 7 6 70 c8 92 4 99 -49 99 -41 0 -43 -2 -49 -32 -2 -18
-6 -53 -7 -78 -3 -41 -6 -45 -30 -48 -38 -4 -47 20 -37 93 4 33 5 63 1 67 -4
3 -20 7 -37 9 -61 4 -64 3 -67 -53 -3 -58 -22 -73 -52 -42 -13 13 -15 26 -10
60 6 41 4 44 -21 54 -14 5 -41 10 -59 10 -29 0 -38 7 -68 53 -58 86 -75 128
-89 210 -18 109 -3 120 47 33 54 -94 70 -88 64 24 -3 51 -16 91 -33 102 -7 4
-67 8 -135 8 -98 0 -124 -3 -128 -15z"/>
</g>
</svg>
